<svg width="400" height="400" viewBox="0 0 400 400" xmlns="http://www.w3.org/2000/svg">
  <defs>
    <!-- Gradient for shield -->
    <linearGradient id="shieldGradient" x1="0%" y1="0%" x2="100%" y2="100%">
      <stop offset="0%" style="stop-color:#3B82F6;stop-opacity:1" />
      <stop offset="50%" style="stop-color:#1E40AF;stop-opacity:1" />
      <stop offset="100%" style="stop-color:#1E3A8A;stop-opacity:1" />
    </linearGradient>
    
    <!-- Gradient for token/coin -->
    <linearGradient id="tokenGradient" x1="0%" y1="0%" x2="100%" y2="100%">
      <stop offset="0%" style="stop-color:#F59E0B;stop-opacity:1" />
      <stop offset="50%" style="stop-color:#D97706;stop-opacity:1" />
      <stop offset="100%" style="stop-color:#B45309;stop-opacity:1" />
    </linearGradient>
    
    <!-- Shadow filter -->
    <filter id="shadow" x="-50%" y="-50%" width="200%" height="200%">
      <feDropShadow dx="2" dy="4" stdDeviation="8" flood-color="#000000" flood-opacity="0.3"/>
    </filter>
    
    <!-- Glow effect -->
    <filter id="glow" x="-50%" y="-50%" width="200%" height="200%">
      <feGaussianBlur stdDeviation="3" result="coloredBlur"/>
      <feMerge> 
        <feMergeNode in="coloredBlur"/>
        <feMergeNode in="SourceGraphic"/>
      </feMerge>
    </filter>
  </defs>
  
  <!-- Background circle -->
  <circle cx="200" cy="200" r="190" fill="#F8FAFC" stroke="#E2E8F0" stroke-width="2"/>
  
  <!-- Main shield shape -->
  <path d="M200 60 L280 100 L280 200 Q280 260 200 320 Q120 260 120 200 L120 100 Z" 
        fill="url(#shieldGradient)" 
        filter="url(#shadow)" 
        stroke="#1E3A8A" 
        stroke-width="2"/>
  
  <!-- Shield highlight -->
  <path d="M200 70 L270 105 L270 195 Q270 245 200 295 Q130 245 130 195 L130 105 Z" 
        fill="none" 
        stroke="#60A5FA" 
        stroke-width="1" 
        opacity="0.6"/>
  
  <!-- Central token/coin -->
  <circle cx="200" cy="180" r="45" 
          fill="url(#tokenGradient)" 
          filter="url(#glow)" 
          stroke="#B45309" 
          stroke-width="2"/>
  
  <!-- Token inner circle -->
  <circle cx="200" cy="180" r="35" 
          fill="none" 
          stroke="#FEF3C7" 
          stroke-width="2" 
          opacity="0.8"/>
  
  <!-- Token symbol - Dollar sign -->
  <text x="200" y="195" 
        font-family="Arial Black, sans-serif" 
        font-size="36" 
        font-weight="bold" 
        text-anchor="middle" 
        fill="#FFFFFF" 
        filter="url(#shadow)">$</text>
  
  <!-- Security lock icon at top -->
  <rect x="190" y="120" width="20" height="15" 
        fill="none" 
        stroke="#FFFFFF" 
        stroke-width="2" 
        rx="2"/>
  <circle cx="200" cy="125" r="6" 
          fill="none" 
          stroke="#FFFFFF" 
          stroke-width="2"/>
  
  <!-- Decorative elements - Corner accents -->
  <polygon points="160,140 170,130 180,140 170,150" 
           fill="#60A5FA" 
           opacity="0.7"/>
  <polygon points="220,140 230,130 240,140 230,150" 
           fill="#60A5FA" 
           opacity="0.7"/>
  
  <!-- Bottom decorative elements -->
  <rect x="175" y="240" width="50" height="4" 
        fill="#FFFFFF" 
        opacity="0.8" 
        rx="2"/>
  <rect x="185" y="250" width="30" height="3" 
        fill="#FFFFFF" 
        opacity="0.6" 
        rx="1"/>
  
  <!-- App name text -->
  <text x="200" y="340" 
        font-family="Arial, sans-serif" 
        font-size="24" 
        font-weight="bold" 
        text-anchor="middle" 
        fill="#1E40AF">TokenShield</text>
  
  <!-- Subtitle -->
  <text x="200" y="365" 
        font-family="Arial, sans-serif" 
        font-size="12" 
        text-anchor="middle" 
        fill="#64748B">Customer Management</text>
</svg>